<mxfile host="app.diagrams.net" modified="2023-12-19T17:32:42.504Z" agent="Mozilla/5.0 (X11; Linux x86_64) AppleWebKit/537.36 (KHTML, like Gecko) Chrome/120.0.0.0 Safari/537.36" etag="_lpylxJgRlEDl-g0e2jL" version="21.6.9" type="device">
  <diagram name="Seite-1" id="lj8HXrPeBlfigR0zn_De">
    <mxGraphModel dx="1121" dy="655" grid="1" gridSize="10" guides="1" tooltips="1" connect="1" arrows="1" fold="1" page="1" pageScale="1" pageWidth="827" pageHeight="1169" math="0" shadow="0">
      <root>
        <mxCell id="0" />
        <mxCell id="1" parent="0" />
        <mxCell id="dSd4idpe3QHZIOe4irLz-2" value="" style="shape=image;html=1;verticalAlign=top;verticalLabelPosition=bottom;labelBackgroundColor=#ffffff;imageAspect=0;aspect=fixed;image=https://cdn0.iconfinder.com/data/icons/kameleon-free-pack/110/Hacker-128.png" vertex="1" parent="1">
          <mxGeometry x="60" y="130" width="128" height="128" as="geometry" />
        </mxCell>
        <mxCell id="dSd4idpe3QHZIOe4irLz-3" value="" style="image;html=1;image=img/lib/clip_art/computers/Server_Rack_128x128.png" vertex="1" parent="1">
          <mxGeometry x="350" y="154" width="80" height="80" as="geometry" />
        </mxCell>
        <mxCell id="dSd4idpe3QHZIOe4irLz-4" value="" style="rounded=1;whiteSpace=wrap;html=1;" vertex="1" parent="1">
          <mxGeometry x="340" y="250" width="120" height="60" as="geometry" />
        </mxCell>
      </root>
    </mxGraphModel>
  </diagram>
</mxfile>
